<mxfile host="app.diagrams.net" modified="2024-03-21T04:18:12.197Z" agent="Mozilla/5.0 (X11; Linux x86_64) AppleWebKit/537.36 (KHTML, like Gecko) Chrome/117.0.0.0 Safari/537.36" version="24.0.7" etag="ekhIJgPhS9nANcQNErlD" type="github">
  <diagram name="Page-1" id="BXAjdNhXXHnpOCVDDtvZ">
    <mxGraphModel>
      <root>
        <mxCell id="0" />
        <mxCell id="1" parent="0" />
      </root>
    </mxGraphModel>
  </diagram>
</mxfile>
